<svg xmlns="http://www.w3.org/2000/svg" viewBox="0 0 100 100">
  <!-- Neural network nodes -->
  <circle cx="25" cy="30" r="4" fill="#2196F3"/>
  <circle cx="25" cy="50" r="4" fill="#2196F3"/>
  <circle cx="25" cy="70" r="4" fill="#2196F3"/>

  <circle cx="50" cy="25" r="4" fill="#FF9800"/>
  <circle cx="50" cy="45" r="4" fill="#FF9800"/>
  <circle cx="50" cy="65" r="4" fill="#FF9800"/>
  <circle cx="50" cy="85" r="4" fill="#FF9800"/>

  <circle cx="75" cy="40" r="4" fill="#4CAF50"/>
  <circle cx="75" cy="70" r="4" fill="#4CAF50"/>

  <!-- Connections -->
  <line x1="28" y1="30" x2="47" y2="25" stroke="#90A4AE" stroke-width="0.8"/>
  <line x1="28" y1="30" x2="47" y2="45" stroke="#90A4AE" stroke-width="0.8"/>
  <line x1="28" y1="50" x2="47" y2="25" stroke="#90A4AE" stroke-width="0.8"/>
  <line x1="28" y1="50" x2="47" y2="45" stroke="#90A4AE" stroke-width="0.8"/>
  <line x1="28" y1="50" x2="47" y2="65" stroke="#90A4AE" stroke-width="0.8"/>
  <line x1="28" y1="70" x2="47" y2="65" stroke="#90A4AE" stroke-width="0.8"/>
  <line x1="28" y1="70" x2="47" y2="85" stroke="#90A4AE" stroke-width="0.8"/>

  <line x1="53" y1="25" x2="72" y2="40" stroke="#90A4AE" stroke-width="0.8"/>
  <line x1="53" y1="45" x2="72" y2="40" stroke="#90A4AE" stroke-width="0.8"/>
  <line x1="53" y1="65" x2="72" y2="40" stroke="#90A4AE" stroke-width="0.8"/>
  <line x1="53" y1="65" x2="72" y2="70" stroke="#90A4AE" stroke-width="0.8"/>
  <line x1="53" y1="85" x2="72" y2="70" stroke="#90A4AE" stroke-width="0.8"/>

  <!-- Robot -->
  <rect x="75" y="15" width="18" height="15" rx="2" fill="#616161"/>
  <rect x="80" y="10" width="8" height="8" rx="4" fill="#757575"/>
  <rect x="78" y="18" width="2" height="8" fill="#424242"/>
  <rect x="88" y="18" width="2" height="8" fill="#424242"/>
  <rect x="76" y="30" width="3" height="10" fill="#424242"/>
  <rect x="89" y="30" width="3" height="10" fill="#424242"/>

  <!-- AI signal -->
  <path d="M84 14 Q86 12 88 14 T92 14" stroke="#4CAF50" stroke-width="1" fill="none"/>
  <circle cx="92" cy="14" r="1" fill="#4CAF50"/>
</svg>