<svg xmlns="http://www.w3.org/2000/svg" viewBox="0 0 100 100">
  <!-- Head -->
  <circle cx="50" cy="25" r="12" fill="#E0E0E0" stroke="#9E9E9E" stroke-width="0.5"/>
  <!-- Eyes -->
  <circle cx="45" cy="23" r="1.5" fill="#212121"/>
  <circle cx="55" cy="23" r="1.5" fill="#212121"/>
  <!-- Antenna -->
  <line x1="50" y1="13" x2="50" y2="8" stroke="#616161" stroke-width="1"/>
  <circle cx="50" cy="7" r="1.5" fill="#FF5722"/>

  <!-- Body -->
  <rect x="42" y="37" width="16" height="20" rx="2" fill="#BDBDBD" stroke="#9E9E9E" stroke-width="0.5"/>

  <!-- Arms -->
  <line x1="35" y1="42" x2="42" y2="42" stroke="#757575" stroke-width="3" stroke-linecap="round"/>
  <line x1="58" y1="42" x2="65" y2="42" stroke="#757575" stroke-width="3" stroke-linecap="round"/>
  <line x1="35" y1="42" x2="32" y2="48" stroke="#757575" stroke-width="2" stroke-linecap="round"/>
  <line x1="65" y1="42" x2="68" y2="48" stroke="#757575" stroke-width="2" stroke-linecap="round"/>

  <!-- Legs -->
  <line x1="46" y1="57" x2="46" y2="70" stroke="#616161" stroke-width="3" stroke-linecap="round"/>
  <line x1="54" y1="57" x2="54" y2="70" stroke="#616161" stroke-width="3" stroke-linecap="round"/>
  <line x1="44" y1="70" x2="48" y2="72" stroke="#616161" stroke-width="2" stroke-linecap="round"/>
  <line x1="52" y1="70" x2="56" y2="72" stroke="#616161" stroke-width="2" stroke-linecap="round"/>

  <!-- Chest Panel -->
  <rect x="45" y="42" width="10" height="8" rx="1" fill="#424242" opacity="0.7"/>
  <circle cx="50" cy="46" r="1" fill="#4CAF50"/>
</svg>