<svg xmlns="http://www.w3.org/2000/svg" viewBox="0 0 100 100">
  <!-- Grid floor -->
  <rect x="10" y="60" width="80" height="30" fill="#E0E0E0"/>
  <g stroke="#BDBDBD" stroke-width="0.5">
    <line x1="10" y1="65" x2="90" y2="65"/>
    <line x1="10" y1="70" x2="90" y2="70"/>
    <line x1="10" y1="75" x2="90" y2="75"/>
    <line x1="10" y1="80" x2="90" y2="80"/>
    <line x1="10" y1="85" x2="90" y2="85"/>
    <line x1="15" y1="60" x2="15" y2="90"/>
    <line x1="20" y1="60" x2="20" y2="90"/>
    <line x1="25" y1="60" x2="25" y2="90"/>
    <line x1="30" y1="60" x2="30" y2="90"/>
    <line x1="35" y1="60" x2="35" y2="90"/>
    <line x1="40" y1="60" x2="40" y2="90"/>
    <line x1="45" y1="60" x2="45" y2="90"/>
    <line x1="50" y1="60" x2="50" y2="90"/>
    <line x1="55" y1="60" x2="55" y2="90"/>
    <line x1="60" y1="60" x2="60" y2="90"/>
    <line x1="65" y1="60" x2="65" y2="90"/>
    <line x1="70" y1="60" x2="70" y2="90"/>
    <line x1="75" y1="60" x2="75" y2="90"/>
    <line x1="80" y1="60" x2="80" y2="90"/>
    <line x1="85" y1="60" x2="85" y2="90"/>
  </g>

  <!-- Robot -->
  <circle cx="50" cy="35" r="8" fill="#757575"/>
  <rect x="44" y="43" width="12" height="15" rx="2" fill="#616161"/>
  <rect x="36" y="48" width="8" height="10" rx="1" fill="#757575"/>
  <rect x="56" y="48" width="8" height="10" rx="1" fill="#757575"/>
  <rect x="42" y="58" width="5" height="12" fill="#424242"/>
  <rect x="53" y="58" width="5" height="12" fill="#424242"/>

  <!-- Robot face -->
  <circle cx="47" cy="33" r="1" fill="#FFEB3B"/>
  <circle cx="53" cy="33" r="1" fill="#FFEB3B"/>
  <path d="M48 37 Q50 39 52 37" stroke="#FFEB3B" stroke-width="0.8" fill="none"/>

  <!-- Simulation frame -->
  <rect x="5" y="5" width="90" height="85" fill="none" stroke="#4CAF50" stroke-width="1" stroke-dasharray="3,2"/>
  <circle cx="92" cy="8" r="2" fill="#4CAF50"/>
</svg>